<?xml version="1.0" encoding="utf-8"?>
<!-- Generator: Adobe Illustrator 19.0.0, SVG Export Plug-In . SVG Version: 6.00 Build 0)  -->
<svg version="1.1" id="Layer_1" xmlns="http://www.w3.org/2000/svg" xmlns:xlink="http://www.w3.org/1999/xlink" x="0px" y="0px"
	 viewBox="0 0 960 560" style="enable-background:new 0 0 960 560;" xml:space="preserve">
<style type="text/css">
	.st0{fill:#FDD5EF;}
</style>
<path id="XMLID_1_" class="st0" d="M611.4,277.7h-280c-5.5,0-10-4.5-10-10v-80c0-5.5,4.5-10,10-10h280c5.5,0,10,4.5,10,10v80
	C621.4,273.2,616.9,277.7,611.4,277.7z"/>
<path id="XMLID_2_" class="st0" d="M511.4,377.7h-80c-5.5,0-10-4.5-10-10v-280c0-5.5,4.5-10,10-10h80c5.5,0,10,4.5,10,10v280
	C521.4,373.2,516.9,377.7,511.4,377.7z"/>
</svg>
