<svg id="Layer_1" data-name="Layer 1" xmlns="http://www.w3.org/2000/svg" viewBox="0 0 133.8 124.46"><defs><style>.cls-1{fill:none;}.cls-1,.cls-2{stroke:#004dff;stroke-miterlimit:10;stroke-width:3px;}.cls-2,.cls-4{fill:#fff;}.cls-3{fill:#004dff;}</style></defs><title>pslab2</title><path class="cls-1" d="M90.75,35.55q28.79-1.6,49,11.66,19.12,12.62,20.83,31.49,1.8,19.88-15.67,34T99.46,128.46Q71.18,130,51.15,118.35q-20.23-11.87-22-31.64-1.8-20,15.92-34.79T90.75,35.55" transform="translate(-27.96 -34.37)"/><path class="cls-2" d="M104,87.61q3.65-.3,9.31,3.4,6.91,4.46,9.81,5.31a39.67,39.67,0,0,0,10.26,1.1q5.36,0.05,6.56,1.15t1.4,5a11.88,11.88,0,0,0,1.55,6.21l3.4,2.65a45.79,45.79,0,0,1,5.61,4.41q7.56,7.21,6.81,16.92t-14.82,17q-15.12,7.66-36.65,7.11-23.53-.55-35.95-5.86Q56.36,145.54,57,132.17a45.51,45.51,0,0,1,1.6-9.41,21.71,21.71,0,0,0,1.15-6.46,12.58,12.58,0,0,0-1.5-4.41A4.18,4.18,0,0,1,58,108q1.5-3.1,10-4.11,11.06-1.25,14.87-3,3-1.4,11.31-7.76,6.91-5.36,9.81-5.56" transform="translate(-27.96 -34.37)"/><path class="cls-3" d="M95.56,98.83a8,8,0,0,1,4.21,4.26q0.55,1.35-.15,1.65t-1.55-.9l-1.4-1.9-2.25-1.35q-1.45-.9-0.65-1.65l1.8-.1" transform="translate(-27.96 -34.37)"/><path class="cls-3" d="M113.38,101.78l-0.9,1.4a1.08,1.08,0,0,1-1.35.55q-0.5-.15-0.25-1.1a4.55,4.55,0,0,1,.9-1.85,4.07,4.07,0,0,1,1.45-1.3l1.15-.1q0.65,0.4.05,1.2l-1.05,1.2" transform="translate(-27.96 -34.37)"/><path class="cls-3" d="M114.83,84.66q-5.11-4.86-4.26-10.51t7.21-8.71a24.08,24.08,0,0,1,14.52-1.85,24.18,24.18,0,0,1,13.27,6.11q5.11,4.91,4.26,10.51T142.62,89a23.83,23.83,0,0,1-14.52,1.8,24.18,24.18,0,0,1-13.27-6.11" transform="translate(-27.96 -34.37)"/><path class="cls-4" d="M116.53,83.76q-4.61-4.16-3.8-9.06t6.51-7.61a22.58,22.58,0,0,1,13.07-1.65,21.78,21.78,0,0,1,11.92,5.26q4.61,4.21,3.75,9.06t-6.51,7.61A22.58,22.58,0,0,1,128.4,89a21.73,21.73,0,0,1-11.87-5.26" transform="translate(-27.96 -34.37)"/><path class="cls-3" d="M125.8,78.35a1.83,1.83,0,0,1-1.4-.5,2,2,0,0,1-.65-1.4,1.83,1.83,0,0,1,.5-1.4,2,2,0,0,1,1.4-.65,1.83,1.83,0,0,1,1.4.5,2,2,0,0,1,.65,1.4,1.83,1.83,0,0,1-.5,1.4,2,2,0,0,1-1.4.65" transform="translate(-27.96 -34.37)"/><path class="cls-3" d="M88.45,87.61a26.71,26.71,0,0,1-15,6.76,27.21,27.21,0,0,1-16.22-2.2q-7.11-3.55-8-9.91t4.91-11.76a26.83,26.83,0,0,1,14.92-6.71A27,27,0,0,1,85.29,66q7.11,3.5,8.06,9.86T88.45,87.61" transform="translate(-27.96 -34.37)"/><path class="cls-4" d="M86.8,86.56a24.49,24.49,0,0,1-13.37,5.86,24.59,24.59,0,0,1-14.52-2q-6.31-3.05-7.16-8.56t4.36-10.16a24.49,24.49,0,0,1,13.37-5.86A24.85,24.85,0,0,1,84,67.79q6.36,3.1,7.16,8.61T86.8,86.56" transform="translate(-27.96 -34.37)"/><path class="cls-3" d="M73.88,80.35a1.82,1.82,0,0,1-1.45-.45,2.14,2.14,0,0,1-.7-1.35,2.1,2.1,0,0,1,.45-1.45,2.14,2.14,0,0,1,1.35-.7,2,2,0,0,1,1.45.45,1.87,1.87,0,0,1,.7,1.35,2,2,0,0,1-1.8,2.15" transform="translate(-27.96 -34.37)"/></svg>
