<?xml version="1.0" encoding="utf-8"?>
<!-- Generator: Adobe Illustrator 19.2.1, SVG Export Plug-In . SVG Version: 6.00 Build 0)  -->
<svg version="1.1" id="Layer_1" xmlns="http://www.w3.org/2000/svg" xmlns:xlink="http://www.w3.org/1999/xlink" x="0px" y="0px"
	 viewBox="0 0 133.8 124.5" style="enable-background:new 0 0 133.8 124.5;" xml:space="preserve">
<style type="text/css">
	.st0{fill:url(#SVGID_1_);stroke:#FFFFFF;stroke-width:5;stroke-miterlimit:10;}
</style>
<linearGradient id="SVGID_1_" gradientUnits="userSpaceOnUse" x1="4.3359" y1="-600.5463" x2="124.3672" y2="-600.5463" gradientTransform="matrix(1 0 0 -1 0 -540)">
	<stop  offset="0" style="stop-color:#00F7DE"/>
	<stop  offset="1" style="stop-color:#00D7F3"/>
</linearGradient>
<path class="st0" d="M116.3,78.9c4.6,4.3,6.7,9.6,6.1,15.4c-0.4,6-4.9,11-13.6,15.5c-9.2,4.6-20.3,6.9-33.4,6.5
	c-14.3-0.4-25.2-2.2-32.7-5.4c-9-4-13.3-10-13-18c0.1-2.9,0.7-5.8,1.4-8.5c0-0.1,0.1-0.4,0.1-0.6c-2.4-1.1-4.7-2.2-6.9-3.5
	c-11.9-7.2-18.7-16.8-19.7-29C3.4,39.4,8.1,28.9,18.9,19.8s24.8-14.1,41.6-15C78,3.7,92.9,7.4,105.2,15.5
	c11.8,7.6,17.9,17.3,19,28.7c1.1,11.8-3.5,21.9-13.6,30.4L111,75C112.8,76,114.8,77.5,116.3,78.9z"/>
</svg>
