<svg id="Layer_1" data-name="Layer 1" xmlns="http://www.w3.org/2000/svg" xmlns:xlink="http://www.w3.org/1999/xlink" viewBox="0 0 681.54 746.49"><defs><style>.cls-1{fill:#dd7368;}.cls-1,.cls-20,.cls-30,.cls-31{fill-rule:evenodd;}.cls-2{fill:#fb9f78;}.cls-3{fill:#8e496b;}.cls-4{fill:#7a2a52;}.cls-5{fill:#a85a7d;}.cls-6{fill:#d676a2;}.cls-7{fill:#f2d1cf;}.cls-31,.cls-8{fill:#ececec;}.cls-9{fill:#d1b8ce;}.cls-10{fill:#ffe6db;}.cls-11{fill:#f995c2;}.cls-12{fill:#e885ad;}.cls-13{opacity:0.4;fill:url(#linear-gradient);}.cls-14,.cls-33{opacity:0.3;}.cls-14{fill:url(#linear-gradient-2);}.cls-15{fill:#715c93;}.cls-16{fill:#8f9ac9;}.cls-17,.cls-30{fill:#594972;}.cls-18{fill:#5fedcb;}.cls-19{fill:#43dcbc;}.cls-20{fill:#e0bdcd;}.cls-21{fill:#fff4f0;}.cls-22{fill:#ffc281;}.cls-23{fill:#ffdcc0;}.cls-24{fill:#e2a66f;}.cls-25,.cls-29{fill:none;stroke-miterlimit:10;}.cls-25{stroke:#424242;stroke-width:0.93px;}.cls-26{fill:#1eb59c;}.cls-27{fill:#7ff7d7;}.cls-28{fill:#f6f6f6;}.cls-29{stroke:#d3d3d3;stroke-width:0.7px;}.cls-32{fill:#ce9463;}.cls-33{fill:#f9f8ed;}.cls-34{fill:#fff;opacity:0.5;}</style><linearGradient id="linear-gradient" x1="300.82" y1="386.64" x2="242.42" y2="55.39" gradientUnits="userSpaceOnUse"><stop offset="0.17" stop-color="#fff" stop-opacity="0"/><stop offset="0.65" stop-color="#ffe6db"/></linearGradient><linearGradient id="linear-gradient-2" x1="375.78" y1="373.42" x2="319.26" y2="52.87" xlink:href="#linear-gradient"/></defs><title>section1</title><path class="cls-1" d="M224.3,192.82C250,178,271,141.6,271,111.87S250,70,224.3,84.89s-46.73,51.22-46.73,80.95S198.56,207.68,224.3,192.82Z" transform="translate(-169.3 0)"/><polygon class="cls-2" points="579.6 351.32 668.66 402.74 572.3 491.54 425.98 407.05 579.6 351.32"/><polygon class="cls-3" points="436.47 281.96 445.77 286.92 445.77 315.02 436.47 310.06 436.47 281.96"/><polygon class="cls-4" points="498.74 331.55 489.44 326.6 489.42 283.34 498.74 284.44 498.74 331.55"/><polygon class="cls-5" points="445.77 286.92 445.77 315.02 498.74 284.44 498.74 331.55 523.07 309.24 523.07 242.29 445.77 286.92"/><polygon class="cls-6" points="523.07 242.29 513.77 237.33 436.47 281.96 445.77 286.92 523.07 242.29"/><polygon class="cls-5" points="612.97 326.18 605.53 330.11 605.53 288.37 612.97 284.44 612.97 326.18"/><polygon class="cls-3" points="606.36 334.24 592.3 326.18 592.3 284.44 606.36 292.5 606.36 334.24"/><polygon class="cls-7" points="401.18 344.24 547.51 428.72 547.51 453.51 401.18 369.03 401.18 344.24"/><polygon class="cls-8" points="554.8 288.5 643.86 339.92 547.51 428.72 401.18 344.24 554.8 288.5"/><polygon class="cls-9" points="547.31 347.47 547.31 375.57 600.28 344.99 600.28 392.1 624.62 369.78 624.62 302.83 547.31 347.47"/><polygon class="cls-8" points="672.45 194.66 526.12 110.18 535.21 101.91 681.54 186.4 672.45 194.66"/><polygon class="cls-7" points="643.81 322.56 554.75 271.14 526.12 110.18 672.45 194.66 643.81 322.56"/><polygon class="cls-8" points="629.06 291.46 566.08 255.1 545.83 141.28 649.3 201.02 629.06 291.46"/><polygon class="cls-10" points="652.9 314.3 643.81 322.56 672.45 194.66 681.54 186.4 652.9 314.3"/><polygon class="cls-10" points="547.51 428.72 547.51 453.51 643.86 364.71 643.86 339.92 547.51 428.72"/><polygon class="cls-3" points="547.31 347.47 556.61 352.43 556.61 380.52 547.31 375.57 547.31 347.47"/><polygon class="cls-4" points="609.58 397.06 600.28 392.1 600.26 348.84 609.58 349.94 609.58 397.06"/><polygon class="cls-5" points="556.61 352.43 556.61 380.52 609.58 349.94 609.58 397.06 633.91 374.74 633.91 307.79 556.61 352.43"/><polygon class="cls-6" points="633.91 307.79 624.62 302.83 547.31 347.47 556.61 352.43 633.91 307.79"/><polygon class="cls-5" points="610.48 640.69 427.05 746.49 427.05 548.09 610.48 442.3 610.48 640.69"/><polygon class="cls-4" points="265.6 441.99 82.17 547.79 82.17 349.39 265.6 243.59 265.6 441.99"/><polygon class="cls-11" points="443.62 531.23 12.4 282.2 195.64 176.4 626.87 425.43 443.62 531.23"/><polygon class="cls-6" points="443.44 558.5 12.4 309.64 12.4 282.2 443.44 531.06 443.44 558.5"/><polygon class="cls-3" points="28.79 318.15 28.79 516.55 82.17 547.37 82.17 413.42 373.67 581.72 373.67 715.67 427.05 746.49 427.05 548.09 28.79 318.15"/><polygon class="cls-12" points="626.87 452.7 443.44 558.5 443.44 531.06 626.87 425.43 626.87 452.7"/><polygon class="cls-13" points="316.32 53.39 353.78 377.3 210.65 296.35 299.07 45.4 316.32 53.39"/><polygon class="cls-14" points="316.32 53.39 353.78 377.3 395.55 356.94 327.7 51.78 316.32 53.39"/><polygon class="cls-15" points="321.5 51.01 305.5 41.77 288.22 31.8 280.03 71.11 305.5 85.81 330.97 100.52 321.5 51.01"/><polygon class="cls-16" points="288.22 31.8 302.27 24.36 335.55 43.57 321.5 51.01 288.22 31.8"/><polygon class="cls-17" points="330.97 100.52 345.02 93.08 335.55 43.57 321.5 51.01 330.97 100.52"/><polygon class="cls-18" points="315.71 0 315.71 41.45 303.01 34.28 303.01 0 315.71 0"/><polygon class="cls-19" points="325.02 37.29 325.02 0 315.71 0 315.71 41.93 325.02 37.29"/><polygon class="cls-5" points="268.72 311.05 395.43 384.2 317.3 429.31 190.59 356.15 268.72 311.05"/><polygon class="cls-8" points="260.45 303.61 387.16 376.76 309.03 421.87 182.33 348.72 260.45 303.61"/><path class="cls-20" d="M431.62,387.21l4.86-2.8,4.91,2.83-4.86,2.8Zm11.22,6.48,4.86-2.8L442.79,388l-4.86,2.8Zm6.31,3.64,4.86-2.8-4.91-2.83-4.86,2.8Zm6.31,3.64,4.86-2.8-4.91-2.83-4.86,2.8Zm6.31,3.64,4.86-2.8L461.72,399l-4.86,2.8Zm6.31,3.64,4.86-2.8L468,402.62l-4.86,2.8Zm6.31,3.64,4.86-2.8-4.91-2.83-4.86,2.8ZM399,368.39l4.86-2.8L399,362.75l-4.86,2.8Zm6.31,3.64,4.86-2.8-4.91-2.83-4.86,2.8Zm6.31,3.64,4.86-2.8L411.59,370l-4.86,2.8Zm6.31,3.64,4.86-2.8-4.91-2.83-4.86,2.8Zm-44.17-25.5,4.86-2.8-4.91-2.83-4.86,2.8Zm6.31,3.64,4.86-2.8L380,351.82l-4.86,2.8Zm6.31,3.64,4.86-2.8-4.91-2.83-4.86,2.8Zm6.31,3.64,4.86-2.8-4.91-2.83-4.86,2.8Zm31.2,18,4.86-2.8-4.91-2.83-4.86,2.8Zm6.31,3.64,4.86-2.8-4.91-2.83-4.86,2.8Z" transform="translate(-169.3 0)"/><path class="cls-20" d="M380.61,344.2l4.91,2.83-4.86,2.8L375.75,347Zm1.45,6.45,10.87,6.27,4.86-2.8-10.87-6.27Zm61.35,35.42,4.86-2.8-4.91-2.83-4.86,2.8Zm6.31,3.64,4.86-2.8-4.91-2.83-4.86,2.8Zm6.31,3.64,4.86-2.8L456,387.72l-4.86,2.8Zm6.31,3.64,4.86-2.8-4.91-2.83-4.86,2.8Zm6.31,3.64,4.86-2.8L468.6,395l-4.86,2.8Zm6.31,3.64,4.86-2.8-4.91-2.83-4.86,2.8Zm6.31,3.64,4.86-2.8-4.91-2.83-4.86,2.8ZM405.9,364.41l4.86-2.8-4.91-2.83-4.86,2.8Zm6.31,3.64,4.86-2.8-4.91-2.83-4.86,2.8Zm6.31,3.64,4.86-2.8-4.91-2.83-4.86,2.8Zm6.31,3.64,4.86-2.8-4.91-2.83-4.86,2.8Zm-25.24-14.57,4.86-2.8-4.91-2.83-4.86,2.8Zm31.2,18,4.86-2.8-4.91-2.83-4.86,2.8Zm6.31,3.64,4.86-2.8L437,376.79l-4.86,2.8Z" transform="translate(-169.3 0)"/><path class="cls-20" d="M387.09,340.46L392,343.3l-4.86,2.8-4.91-2.83Zm100.66,63.73,4.86-2.8-9.11-5.26-4.86,2.8ZM445.33,379.7l4.86-2.8-4.91-2.83-4.86,2.8Zm6.31,3.64,4.86-2.8-4.91-2.83-4.86,2.8Zm6.66,3.85,4.86-2.8-4.91-2.83-4.86,2.8Zm6.31,3.64,4.86-2.8-4.91-2.83L459.7,388Zm6.31,3.64,4.86-2.8-4.91-2.83-4.86,2.8Zm6.66,3.85,4.86-2.8-4.91-2.83-4.86,2.8Zm-71.16-41.09,4.86-2.8-4.91-2.83-4.86,2.8Zm6.66,3.85,4.86-2.8L413,355.44l-4.86,2.8Zm6.31,3.64,4.86-2.8-4.91-2.83-4.86,2.8Zm6.31,3.64,4.86-2.8-4.91-2.83-4.86,2.8Zm-25.59-14.78,4.86-2.8L400.06,348l-4.86,2.8Zm-6.66-3.85,4.86-2.8-4.91-2.83-4.86,2.8Zm38.91,22.47,4.86-2.8-4.91-2.83-4.86,2.8Zm6.31,3.64,4.86-2.8-4.91-2.83-4.86,2.8Z" transform="translate(-169.3 0)"/><path class="cls-20" d="M394,336.49l4.91,2.83-4.86,2.8-4.91-2.83Zm100.66,63.73,4.86-2.8L489,391.34l-4.86,2.8ZM407,349.62l4.86-2.8-11.57-6.68-4.86,2.8Zm48.38,27.93,4.86-2.8-4.91-2.83-4.86,2.8Zm7,4,4.86-2.8L462.33,376l-4.86,2.8Zm6.66,3.85,4.86-2.8L469,379.8l-4.86,2.8Zm7,4,4.86-2.8L476,383.85l-4.86,2.8Zm6.66,3.85,4.86-2.8-4.91-2.83-4.86,2.8ZM414,353.66l4.86-2.8L413.95,348l-4.86,2.8Zm7,4,4.86-2.8L421,352.07l-4.86,2.8Zm7,4,4.86-2.8L428,356.12l-4.86,2.8Zm6.66,3.85,4.86-2.8L434.63,360l-4.86,2.8Zm7,4,4.86-2.8L441.64,364l-4.86,2.8Zm6.66,3.85,4.86-2.8-4.91-2.83-4.86,2.8Z" transform="translate(-169.3 0)"/><path class="cls-20" d="M407.33,328.78l4.91,2.83-4.86,2.8-4.91-2.83Zm1.45,6.45,4.91,2.83,4.86-2.8-4.91-2.83Zm6.31,3.64L420,341.7l4.86-2.8-4.91-2.83Zm65.56,37.85,4.91,2.83,4.86-2.8-4.91-2.83Zm6.31,3.64,4.91,2.83,4.86-2.8-4.91-2.83Zm6.31,3.64,4.91,2.83L503,384l-4.91-2.83ZM508,392.5l4.86-2.8-7.71-4.45-4.86,2.8Zm-28.75-16.6,4.86-2.8-33-19-4.86,2.8Zm-48.73-28.13,4.86-2.8-8.76-5.06-4.86,2.8Zm6.66,3.85,4.86-2.8L437.12,346l-4.86,2.8Zm7,4,4.86-2.8L444.13,350l-4.86,2.8Z" transform="translate(-169.3 0)"/><path class="cls-20" d="M400.44,332.75l4.91,2.83-4.86,2.8-4.91-2.83Zm1.45,6.45L406.8,342l4.86-2.8-4.91-2.83Zm99.21,57.28,4.86-2.8-14-8.1-4.86,2.8ZM417.32,348.1l4.86-2.8L413.06,340l-4.86,2.8ZM465,375.63l4.86-2.8L464.95,370l-4.86,2.8Zm6.66,3.85,4.86-2.8-4.91-2.83-4.86,2.8Zm7,4,4.86-2.8-4.91-2.83-4.86,2.8Zm7,4,4.86-2.8-4.91-2.83-4.86,2.8Zm-62.4-36,4.86-2.8-4.91-2.83-4.86,2.8Zm7,4,4.86-2.8L430.24,350l-4.86,2.8Zm7,4,4.86-2.8L437.25,354l-4.86,2.8Zm7,4,4.86-2.8-4.91-2.83-4.86,2.8Zm6.66,3.85,4.86-2.8-4.91-2.83-4.86,2.8Zm7,4,4.86-2.8-4.91-2.83-4.86,2.8Z" transform="translate(-169.3 0)"/><polygon class="cls-20" points="279.69 347.23 296.29 337.64 329.24 356.67 312.65 366.25 279.69 347.23"/><polygon class="cls-20" points="297.91 336.71 300.74 335.07 316.52 344.18 313.69 345.82 297.91 336.71"/><polygon class="cls-20" points="315.09 346.63 317.92 344.99 333.7 354.1 330.86 355.73 315.09 346.63"/><polygon class="cls-10" points="309.03 421.87 313.01 419.54 313.01 337.02 309.03 339.35 309.03 421.87"/><polygon class="cls-7" points="182.56 349.07 309.27 422.22 309.27 339.7 182.56 266.55 182.56 349.07"/><polygon class="cls-10" points="387.16 376.76 387.16 384.06 309.03 429.17 309.03 421.87 387.16 376.76"/><polygon class="cls-7" points="182.33 348.72 182.33 356.01 309.03 429.17 309.03 421.87 182.33 348.72"/><polygon class="cls-21" points="182.56 266.55 186.31 263.87 313.01 337.02 309.27 339.7 182.56 266.55"/><polygon class="cls-5" points="370.1 408.76 376.69 412.57 376.69 414.07 370.1 410.26 370.1 408.76"/><polygon class="cls-5" points="376.34 405.06 382.93 408.86 376.69 412.57 370.1 408.76 376.34 405.06"/><polygon class="cls-5" points="377.83 407 379.2 407.81 375.04 410.21 373.66 409.41 377.83 407"/><polygon class="cls-5" points="382.93 408.86 382.93 410.46 376.69 414.07 376.69 412.57 382.93 408.86"/><polygon class="cls-5" points="374.61 412.47 393.68 423.48 393.68 425.08 374.61 414.07 374.61 412.47"/><path class="cls-5" d="M568.47,420.57c3.58,4.61,10.95,11.71,2.48,15.88a24.43,24.43,0,0,0-4.76,2.91c-1.7,1.38-3.21,3.06-5.82,3.94-4.63,1.56-11.12-.27-12.57-3.08-1.34-2.59,3.4-3.73,6.76-4.43,3.16-.66,6.62-1.06,9.4-2.2,6.93-2.83,6.85-8.69,3.31-12.63-0.36-.4-1.47-0.1-1.11.3,2.7,3,3.24,6.56.31,9.59-2.49,2.57-6.86,3.23-11.35,4.09-3.19.61-7,1.36-8.44,3.28s1.42,4.36,4.25,5.4a16.7,16.7,0,0,0,11.1-.1c2.21-.89,3.69-2.52,5.18-3.77,1.76-1.47,4.11-2.42,6.24-3.67,3.15-1.86,2.9-4.8,2.07-7.16-1.06-3-3.75-5.85-5.93-8.66-0.32-.42-1.43-0.11-1.11.3h0Z" transform="translate(-169.3 0)"/><polygon class="cls-5" points="382.93 407.66 402.01 418.68 393.68 423.48 374.61 412.47 382.93 407.66"/><polygon class="cls-5" points="397.15 415.87 402.01 418.68 393.68 423.48 388.83 420.68 397.15 415.87"/><polygon class="cls-5" points="402.01 418.68 402.01 420.28 393.68 425.08 393.68 423.48 402.01 418.68"/><polygon class="cls-22" points="369.27 407.94 375.86 411.74 375.86 413.24 369.27 409.44 369.27 407.94"/><polygon class="cls-23" points="375.51 404.23 382.1 408.04 375.86 411.74 369.27 407.94 375.51 404.23"/><polygon class="cls-24" points="377 406.18 378.38 406.98 374.21 409.39 372.84 408.58 377 406.18"/><polygon class="cls-25" points="382.1 408.04 382.1 409.64 375.86 413.24 375.86 411.74 382.1 408.04"/><polygon class="cls-26" points="373.78 411.64 392.86 422.65 392.86 424.26 373.78 413.24 373.78 411.64"/><path class="cls-26" d="M567.64,419.74c3.58,4.61,10.95,11.71,2.48,15.88a24.43,24.43,0,0,0-4.76,2.91c-1.7,1.38-3.21,3.06-5.82,3.94-4.63,1.56-11.12-.27-12.57-3.08-1.34-2.59,3.4-3.73,6.76-4.43,3.16-.66,6.62-1.06,9.4-2.2,6.93-2.83,6.85-8.69,3.31-12.63-0.36-.4-1.47-0.1-1.11.3,2.7,3,3.24,6.56.31,9.59-2.49,2.57-6.86,3.23-11.35,4.09-3.19.61-7,1.36-8.44,3.28s1.42,4.36,4.25,5.4a16.7,16.7,0,0,0,11.1-.1c2.21-.89,3.69-2.52,5.18-3.77,1.76-1.47,4.11-2.42,6.24-3.67,3.15-1.86,2.9-4.8,2.07-7.16-1.06-3-3.75-5.85-5.93-8.66-0.32-.42-1.43-0.11-1.11.3h0Z" transform="translate(-169.3 0)"/><polygon class="cls-27" points="382.1 406.83 401.18 417.85 392.86 422.65 373.78 411.64 382.1 406.83"/><polygon class="cls-24" points="396.32 415.05 401.18 417.85 392.86 422.65 388 419.85 396.32 415.05"/><polygon class="cls-19" points="401.18 417.85 401.18 419.45 392.86 424.26 392.86 422.65 401.18 417.85"/><polygon class="cls-5" points="476.89 401.29 526.14 426.06 461.97 468.58 412.73 443.81 476.89 401.29"/><path class="cls-5" d="M642.68,457.33l-42.93-21.59m22.4,19.81,13.19,6.64M646.21,455L603.29,433.4m46.46,19.25-42.93-21.59m46.45,19.25-42.93-21.59M656.8,448l-42.93-21.59m46.46,19.25L617.4,424m46.46,19.25-42.93-21.59M667.39,441l-42.93-21.59M628,417l42.93,21.59m3.53-2.34-42.93-21.59m3.53-2.34L678,433.95M638.58,410l42.93,21.59m3.53-2.34-42.93-21.59" transform="translate(-169.3 0)"/><polygon class="cls-5" points="488.43 399.52 542.57 420.61 487.95 467.36 433.8 446.27 488.43 399.52"/><path class="cls-5" d="M666.18,455.39L619,437m26.45,18.07,14.51,5.65m9.24-7.91L622,434.43m50.2,15.81L625,431.86m3-2.57,47.2,18.38m3-2.57L631,426.72m50.2,15.81L634,424.15M684.21,440L637,421.58m3-2.57,47.2,18.38m3-2.57L643,416.44m50.2,15.81L646,413.86m50.2,15.81L649,411.29m50.2,15.81L652,408.72m50.2,15.81L655,406.15" transform="translate(-169.3 0)"/><polygon class="cls-28" points="473.59 401.29 522.83 426.06 458.67 468.58 409.42 443.81 473.59 401.29"/><path class="cls-29" d="M639.38,457.33l-42.93-21.59m22.4,19.81L632,462.19M642.91,455L600,433.4m46.46,19.25-42.93-21.59M650,450.32L607,428.73M653.49,448l-42.93-21.59M657,445.64L614.1,424m46.46,19.25-42.93-21.59M664.08,441l-42.93-21.59m3.53-2.34,42.93,21.59m3.53-2.34-42.93-21.59m3.53-2.34,42.93,21.59M635.27,410l42.93,21.59m3.53-2.34L638.8,407.68" transform="translate(-169.3 0)"/><polygon class="cls-28" points="485.12 399.52 539.26 420.61 484.64 467.36 430.5 446.27 485.12 399.52"/><path class="cls-29" d="M662.87,455.39L615.67,437m26.45,18.07,14.51,5.65m9.24-7.91-47.2-18.38m50.2,15.81-47.2-18.38m3-2.57,47.2,18.38m3-2.57-47.2-18.38m50.2,15.81-47.2-18.38M680.9,440l-47.2-18.38m3-2.57,47.2,18.38m3-2.57-47.2-18.38m50.2,15.81-47.19-18.39m50.2,15.81-47.19-18.39m50.2,15.81-47.2-18.38m50.2,15.81-47.2-18.38" transform="translate(-169.3 0)"/><path class="cls-30" d="M216,185.38c25.74-14.86,46.73-51.22,46.73-80.95s-21-41.84-46.73-27S169.3,128.68,169.3,158.4,190.29,200.24,216,185.38Z" transform="translate(-169.3 0)"/><path class="cls-31" d="M223.47,183.36c23.6-13.62,42.84-47,42.84-74.2s-19.24-38.36-42.84-24.73-42.84,47-42.84,74.2S199.88,197,223.47,183.36Z" transform="translate(-169.3 0)"/><path class="cls-15" d="M268.26,108c0-14.28-5-24.32-13.12-29a22.47,22.47,0,0,0-9.27-2.85h0c-6.59-.6-14.22,1.28-22.38,6S207.68,93.83,201.1,102l0,0v0a108,108,0,0,0-9.26,13.55c-8.1,14-13.12,29.86-13.12,44.14,0,9.41,2.19,17,6,22.38h0a22.45,22.45,0,0,0,7.1,6.59c8.1,4.68,19.3,4,31.67-3.14,8.16-4.71,15.8-11.65,22.39-19.86h0a108,108,0,0,0,9.27-13.56C263.24,138.14,268.26,122.32,268.26,108Zm-22.68,52.81-1.9-2.7c-0.54-.76-1.73-0.44-2.66.72s-1.25,2.71-.71,3.47l1.9,2.7a75.26,75.26,0,0,1-16.79,14.89v-4.39a1.19,1.19,0,0,0-1.95-1.12,4.3,4.3,0,0,0-1.95,3.37v4.39c-6,3.16-11.72,4.6-16.79,4.5l1.9-4.9c0.53-1.38.21-2.56-.72-2.64s-2.11,1-2.65,2.35l-1.9,4.89a19.57,19.57,0,0,1-12.3-7.1l3.29-4.09c0.93-1.16,1.25-2.71.71-3.47s-1.73-.44-2.65.72l-3.29,4.09c-2.62-4.34-4.22-10-4.5-16.79l3.8-2.19a4.31,4.31,0,0,0,1.95-3.37,1.19,1.19,0,0,0-1.95-1.13l-3.8,2.19a75.28,75.28,0,0,1,4.5-22l3.29,0.3c0.93,0.08,2.11-1,2.65-2.36s0.21-2.56-.72-2.64l-3.29-.29a98.56,98.56,0,0,1,12.3-21.3l1.9,2.7c0.54,0.76,1.73.44,2.66-.72s1.24-2.71.71-3.47l-1.9-2.7a75.27,75.27,0,0,1,16.79-14.89v4.39a1.19,1.19,0,0,0,1.95,1.12A4.31,4.31,0,0,0,225.42,90V85.61c6-3.16,11.72-4.59,16.79-4.5L240.31,86c-0.54,1.38-.22,2.57.71,2.66s2.12-1,2.66-2.35l1.9-4.89a19.57,19.57,0,0,1,12.3,7.1l-3.28,4.09c-0.93,1.15-1.25,2.7-.72,3.47s1.72,0.45,2.65-.7l3.29-4.1c2.62,4.34,4.22,10,4.5,16.79l-3.8,2.19a4.31,4.31,0,0,0-1.95,3.37,1.19,1.19,0,0,0,1.95,1.12l3.8-2.19a75.28,75.28,0,0,1-4.5,22l-3.3-.29c-0.93-.08-2.11,1-2.65,2.35s-0.21,2.56.72,2.64l3.28,0.29A98.64,98.64,0,0,1,245.57,160.85Z" transform="translate(-169.3 0)"/><path class="cls-15" d="M237.88,111.88l-13.54,20.43-27.2,1.24c-1,0-2.13,1.2-2.58,2.59s0,2.47,1,2.43l28.3-1.29,0.13,0,0.16,0,0.21-.07,0.16-.07,0.21-.12,0.17-.11,0.19-.15,0.17-.15,0.18-.19,0.16-.18,0.18-.24,0.09-.12L240.31,114c0.84-1.26,1-2.75.3-3.32S238.71,110.62,237.88,111.88Z" transform="translate(-169.3 0)"/><path class="cls-5" d="M361.3,234.6a1.79,1.79,0,0,1,1.61,0l32.2,18.59a0.49,0.49,0,0,1,0,.93L379.75,263a1.79,1.79,0,0,1-1.61,0l-32.2-18.59a0.49,0.49,0,0,1,0-.93Z" transform="translate(-169.3 0)"/><path class="cls-5" d="M378.14,263c0.44,0.26.6,0.1,0.35-.34l-7.39-13a2.31,2.31,0,0,0-1.37-1L346,244.11c-0.5-.1-0.55,0-0.11.29Z" transform="translate(-169.3 0)"/><path class="cls-19" d="M359.64,234.6a1.79,1.79,0,0,1,1.61,0l32.2,18.59a0.49,0.49,0,0,1,0,.93L378.1,263a1.79,1.79,0,0,1-1.61,0l-32.2-18.59a0.49,0.49,0,0,1,0-.93Z" transform="translate(-169.3 0)"/><text x="-169.3"/><polygon class="cls-5" points="450.19 373.03 433.46 380.18 454.75 392.42 471.48 385.27 450.19 373.03"/><polygon class="cls-26" points="453.58 391.04 435.11 380.39 435.11 350.32 453.58 360.96 453.58 391.04"/><polygon class="cls-19" points="453.62 360.96 468.17 354.75 468.17 384.82 453.62 391.04 453.62 360.96"/><polygon class="cls-27" points="449.65 344.1 435.11 350.32 453.62 360.96 468.17 354.75 449.65 344.1"/><polygon class="cls-23" points="446.31 354.41 452.98 358.25 456.96 356.55 450.29 352.71 446.31 354.41"/><polygon class="cls-26" points="450.29 346.81 450.29 352.71 456.96 356.55 462.85 354.03 450.29 346.81"/><polygon class="cls-19" points="450.29 346.81 450.29 352.71 446.31 354.41 440.43 351.03 450.29 346.81"/><polygon class="cls-22" points="461.97 382.36 465.78 380.43 465.78 366.24 461.97 368.17 461.97 382.36"/><polygon class="cls-22" points="458.17 378.88 461.97 377.66 461.97 365.43 458.17 367.36 458.17 378.88"/><path class="cls-24" d="M626.39,365.35v14.19l4.88,2.82V368.17Zm3.8,15.08-2.72-1.57V367.34l2.72,1.57v11.52Z" transform="translate(-169.3 0)"/><polygon class="cls-23" points="457.09 365.35 460.89 363.42 465.78 366.24 461.97 368.17 457.09 365.35"/><polygon class="cls-32" points="458.17 378.86 460.89 378.01 460.89 380.43 458.17 378.86"/><polygon class="cls-33" points="449.81 348 451.22 343.27 447.99 329.54 447.99 329.38 447.92 329.43 447.86 329.31 447.86 329.47 447.66 341.45 446.03 345.82 442.93 348.46 447.86 351.34 447.86 351.35 447.99 351.42 452.92 354.23 449.81 348"/><polygon class="cls-34" points="452.92 354.23 455.91 353.58 452.81 347.36 454.21 342.63 450.98 328.9 447.99 329.54 451.22 343.27 449.81 348 452.92 354.23"/></svg>