<?xml version="1.0" encoding="utf-8"?>
<!-- Generator: Adobe Illustrator 19.0.0, SVG Export Plug-In . SVG Version: 6.00 Build 0)  -->
<svg version="1.1" id="Layer_1" xmlns="http://www.w3.org/2000/svg" xmlns:xlink="http://www.w3.org/1999/xlink" x="0px" y="0px"
	 viewBox="0 0 960 560" style="enable-background:new 0 0 960 560;" xml:space="preserve">
<style type="text/css">
	.st0{fill:#FFFFFF;stroke:#FDD5EF;stroke-width:18;stroke-miterlimit:10;}
</style>
<path id="XMLID_1_" class="st0" d="M367.1,376l23.3-103.2c0.1-0.6,0-1.3-0.5-1.8l-71.8-77.7c-1.1-1.2-0.4-3.2,1.3-3.3l105.4-9.7
	c0.7-0.1,1.2-0.4,1.6-1l51.7-92.3c0.8-1.4,2.9-1.3,3.6,0.2l41.8,97.2c0.3,0.6,0.8,1,1.4,1.2l103.8,20.7c1.6,0.3,2.2,2.4,0.9,3.5
	l-79.5,69.8c-0.5,0.4-0.7,1.1-0.7,1.7l12.4,105.1c0.2,1.6-1.6,2.8-3,2l-91-54.1c-0.6-0.3-1.3-0.4-1.9-0.1l-96.1,44.3
	C368.4,379,366.8,377.7,367.1,376z"/>
</svg>
